<?xml version="1.0" encoding="utf-8"?>
<!-- Generator: Adobe Illustrator 24.1.1, SVG Export Plug-In . SVG Version: 6.00 Build 0)  -->
<svg version="1.1" id="Layer_1" xmlns="http://www.w3.org/2000/svg" xmlns:xlink="http://www.w3.org/1999/xlink" x="0px" y="0px"
	 viewBox="0 0 88.7 90.3" style="enable-background:new 0 0 88.7 90.3;" xml:space="preserve">
<style type="text/css">
	.st0{fill:#00BFCB;}
	.st1{fill:#FFFFFF;}
</style>
<g id="Layer_2_1_">
	<g id="_ddd">
		<path class="st0" d="M80.3,0h-72C3.7,0,0,3.7,0,8.3v58.8c0,4.6,3.7,8.3,8.3,8.3c0,0,0,0,0,0h21.3l0.7,14.9l25.3-14.9h24.6
			c4.6,0,8.3-3.7,8.3-8.3V8.3C88.6,3.7,84.9,0,80.3,0z"/>
		<path class="st1" d="M33.1,35.6c-0.8,0-1.5-0.7-1.5-1.5v-8.1c0-0.8,0.7-1.5,1.5-1.5s1.5,0.7,1.5,1.5v8.1
			C34.6,34.9,33.9,35.6,33.1,35.6z"/>
		<path class="st1" d="M55.5,35.6c-0.8,0-1.5-0.7-1.5-1.5v-8.1c0-0.8,0.7-1.5,1.5-1.5s1.5,0.7,1.5,1.5v8.1
			C57,34.9,56.3,35.6,55.5,35.6z"/>
		<path class="st1" d="M44.5,57.8h-0.8c-13.1-0.4-22-11.5-22.4-12c-0.5-0.6-0.4-1.6,0.2-2.1c0.6-0.5,1.6-0.4,2.1,0.2
			c0.1,0.1,8.5,10.5,20.2,10.9C51.1,55,58.3,51.3,65,43.8c0.6-0.6,1.5-0.6,2.1,0c0.5,0.5,0.6,1.4,0.1,2
			C60.1,53.7,52.5,57.8,44.5,57.8z"/>
	</g>
</g>
</svg>
