<?xml version="1.0" encoding="utf-8"?>
<!-- Generator: Adobe Illustrator 24.1.1, SVG Export Plug-In . SVG Version: 6.00 Build 0)  -->
<svg version="1.1" id="Layer_1" xmlns="http://www.w3.org/2000/svg" xmlns:xlink="http://www.w3.org/1999/xlink" x="0px" y="0px"
	 viewBox="0 0 88.7 90.3" style="enable-background:new 0 0 88.7 90.3;" xml:space="preserve">
<style type="text/css">
	.st0{fill:#333333;}
	.st1{fill:#FFFFFF;}
</style>
<g id="Layer_2_1_">
	<g id="_ddd">
		<g>
			<path class="st0" d="M30.1,74.9H8.3c-4.3,0-7.8-3.5-7.8-7.8V8.3C0.5,4,4,0.5,8.3,0.5h72c2.1,0,4.1,0.8,5.5,2.3
				C87.3,4.3,88,6.2,88,8.3v58.8c0,4.3-3.5,7.8-7.8,7.8H55.5L30.8,89.4L30.1,74.9z"/>
			<path class="st0" d="M80.3,1c2,0,3.8,0.8,5.2,2.2c1.3,1.4,2.1,3.2,2,5.1v58.8c0,4-3.3,7.3-7.3,7.3H55.6h-0.3l-0.2,0.1L31.2,88.6
				l-0.6-13.2v-1h-1H8.3c-4,0-7.3-3.3-7.3-7.3V8.3C1,4.3,4.3,1,8.3,1H80.3 M80.3,0h-72C3.7,0,0,3.7,0,8.3v58.8
				c0,4.6,3.7,8.3,8.3,8.3h21.3l0.7,14.9l25.3-14.9h24.6c4.6,0,8.3-3.7,8.3-8.3V8.3C88.6,3.7,84.9,0,80.3,0L80.3,0z"/>
		</g>
		<path class="st1" d="M33.1,35.6c-0.8,0-1.5-0.7-1.5-1.5V26c0-0.8,0.7-1.5,1.5-1.5s1.5,0.7,1.5,1.5v8.1
			C34.6,34.9,33.9,35.6,33.1,35.6z"/>
		<path class="st1" d="M55.5,35.6c-0.8,0-1.5-0.7-1.5-1.5V26c0-0.8,0.7-1.5,1.5-1.5S57,25.2,57,26v8.1C57,34.9,56.3,35.6,55.5,35.6z
			"/>
		<path class="st1" d="M44.5,57.8h-0.8c-13.1-0.4-22-11.5-22.4-12c-0.5-0.6-0.4-1.6,0.2-2.1s1.6-0.4,2.1,0.2
			c0.1,0.1,8.5,10.5,20.2,10.9c7.3,0.2,14.5-3.5,21.2-11c0.6-0.6,1.5-0.6,2.1,0c0.5,0.5,0.6,1.4,0.1,2
			C60.1,53.7,52.5,57.8,44.5,57.8z"/>
	</g>
</g>
</svg>
